<svg width="251" height="195" viewBox="0 0 251 195" fill="none" xmlns="http://www.w3.org/2000/svg">
<g clip-path="url(#clip0_45609_4203)">
<path d="M230.002 67.6943C226.188 68.2302 222.661 65.5683 222.127 61.7515C221.593 57.9346 224.255 54.4032 228.068 53.8672C231.882 53.3312 235.409 55.9931 235.942 59.8099C236.477 63.6268 233.815 67.1584 230.002 67.6943ZM228.121 54.2512C224.524 54.7569 222.007 58.0968 222.511 61.6976C223.014 65.2984 226.35 67.8158 229.948 67.3102C233.545 66.8046 236.062 63.4647 235.559 59.8639C235.055 56.2631 231.719 53.7457 228.121 54.2512Z" fill="#FFC83E"/>
<path d="M226.179 43.6559C226.13 43.6626 226.079 43.6453 226.028 43.6281L219.766 38.9028C219.684 38.8409 219.667 38.7209 219.729 38.6387L224.453 32.3696C224.515 32.2875 224.635 32.2706 224.717 32.3325L230.978 37.0579C231.061 37.1198 231.077 37.2398 231.015 37.3219L226.292 43.591C226.271 43.6184 226.226 43.6492 226.179 43.6559ZM220.178 38.6981L226.114 43.1998L230.611 37.2318L224.654 32.7575L220.178 38.6981Z" fill="#1DC8EF"/>
<path d="M206.475 40.3783C206.427 40.3851 206.375 40.3678 206.325 40.3506L197.985 34.057C197.903 33.9951 197.886 33.8751 197.948 33.7929C198.009 33.7108 198.129 33.6939 198.212 33.7559L206.551 40.0494C206.634 40.1113 206.65 40.2314 206.588 40.3135C206.568 40.3408 206.523 40.3716 206.475 40.3783Z" fill="#48D38A"/>
<path d="M199.181 41.4033C199.133 41.4099 199.081 41.3927 199.03 41.3754C198.948 41.3135 198.932 41.1936 198.994 41.1114L205.285 32.7617C205.347 32.6796 205.467 32.6627 205.549 32.7246C205.631 32.7865 205.647 32.9065 205.585 32.9887L199.294 41.3384C199.274 41.3657 199.229 41.3965 199.181 41.4033Z" fill="#48D38A"/>
<path d="M245.899 32.5381C243.908 32.8178 242.048 31.4147 241.77 29.4222C241.491 27.4298 242.894 25.5682 244.884 25.2885C246.875 25.0087 248.735 26.4118 249.013 28.4043C249.292 30.3967 247.889 32.2583 245.899 32.5381ZM244.935 25.6485C243.136 25.9013 241.901 27.5679 242.15 29.3443C242.399 31.1207 244.066 32.3794 245.841 32.13C247.641 31.8772 248.874 30.2106 248.627 28.4342C248.378 26.6578 246.71 25.3991 244.935 25.6485Z" fill="#48D38A"/>
<path d="M222.958 18.8958L219.384 19.3981C219.288 19.4116 219.179 19.329 219.165 19.233L218.668 15.6802C218.655 15.5842 218.737 15.4747 218.833 15.4612L222.407 14.959C222.503 14.9455 222.613 15.028 222.626 15.1241L223.126 18.7008C223.14 18.7968 223.053 18.8824 222.958 18.8958ZM219.522 18.987L222.712 18.5387L222.269 15.37L219.079 15.8183L219.522 18.987Z" fill="#FFC83E"/>
<path d="M248.523 4.58301C247.515 4.72459 246.61 4.01964 246.472 3.03542C246.334 2.05121 247.036 1.12042 248.019 0.982213C249.026 0.84065 249.932 1.54559 250.07 2.52981C250.208 3.51403 249.506 4.44482 248.523 4.58301ZM248.07 1.34229C247.278 1.45353 246.745 2.18932 246.852 2.95748C246.96 3.72566 247.698 4.28279 248.466 4.17493C249.233 4.06707 249.79 3.32791 249.683 2.55974C249.576 1.79157 248.861 1.23107 248.07 1.34229Z" fill="#1DC8EF"/>
<path d="M22.1311 192.648C18.9864 192.648 16.4351 190.094 16.4351 186.947C16.4351 183.799 18.9864 181.246 22.1311 181.246C25.2758 181.246 27.8272 183.799 27.8272 186.947C27.8272 190.094 25.2758 192.648 22.1311 192.648ZM22.1311 181.563C19.1644 181.563 16.7516 183.978 16.7516 186.947C16.7516 189.916 19.1644 192.331 22.1311 192.331C25.0979 192.331 27.5107 189.916 27.5107 186.947C27.5107 183.978 25.0979 181.563 22.1311 181.563Z" fill="#FFC83E"/>
<path d="M21.7582 172.773C21.7187 172.773 21.6791 172.753 21.6396 172.734L17.1104 168.201C17.0511 168.141 17.0511 168.042 17.1104 167.983L21.6396 163.45C21.6989 163.39 21.7978 163.39 21.8571 163.45L26.3863 167.983C26.4456 168.042 26.4456 168.141 26.3863 168.201L21.8571 172.734C21.8373 172.753 21.7978 172.773 21.7582 172.773ZM17.4664 168.082L21.7582 172.397L26.0698 168.082L21.7582 163.787L17.4664 168.082Z" fill="#1DC8EF"/>
<path d="M6.19543 167.885C6.15588 167.885 6.11632 167.865 6.07677 167.845L0.0445004 161.808C-0.0148335 161.749 -0.0148335 161.649 0.0445004 161.59C0.103834 161.531 0.202725 161.531 0.262059 161.59L6.29433 167.628C6.35366 167.687 6.35366 167.786 6.29433 167.845C6.27455 167.865 6.23499 167.885 6.19543 167.885Z" fill="#48D38A"/>
<path d="M0.179279 167.885C0.139724 167.885 0.100169 167.865 0.0606137 167.845C0.00127982 167.786 0.00127982 167.687 0.0606137 167.628L6.09289 161.59C6.15222 161.531 6.2511 161.531 6.31044 161.59C6.36977 161.649 6.36977 161.749 6.31044 161.808L0.278169 167.845C0.258391 167.865 0.218835 167.885 0.179279 167.885Z" fill="#48D38A"/>
<path d="M38.9635 166.024C37.3219 166.024 35.9771 164.678 35.9771 163.034C35.9771 161.392 37.3219 160.046 38.9635 160.046C40.6051 160.046 41.95 161.392 41.95 163.034C41.95 164.678 40.6051 166.024 38.9635 166.024ZM38.9635 160.343C37.4801 160.343 36.2935 161.55 36.2935 163.015C36.2935 164.48 37.4999 165.687 38.9635 165.687C40.4469 165.687 41.6336 164.48 41.6336 163.015C41.6336 161.55 40.427 160.343 38.9635 160.343Z" fill="#48D38A"/>
<path d="M21.9543 152.385H19.0074C18.9283 152.385 18.8491 152.306 18.8491 152.227V149.297C18.8491 149.218 18.9283 149.139 19.0074 149.139H21.9543C22.0334 149.139 22.1125 149.218 22.1125 149.297V152.246C22.1125 152.326 22.0334 152.385 21.9543 152.385ZM19.1656 152.069H21.7961V149.456H19.1656V152.069Z" fill="#FFC83E"/>
<path d="M44.2471 143.715C43.4164 143.715 42.7637 143.042 42.7637 142.231C42.7637 141.419 43.4361 140.746 44.2471 140.746C45.0777 140.746 45.7304 141.419 45.7304 142.231C45.7304 143.042 45.058 143.715 44.2471 143.715ZM44.2471 141.043C43.5944 141.043 43.0802 141.577 43.0802 142.211C43.0802 142.844 43.6142 143.379 44.2471 143.379C44.8799 143.379 45.4139 142.844 45.4139 142.211C45.4139 141.577 44.8998 141.043 44.2471 141.043Z" fill="#1DC8EF"/>
<path d="M128.172 50.0798C91.1249 50.0798 60.6078 77.8991 56.296 113.763L38.0024 122.561L56.296 131.317C60.6078 167.223 91.1664 195 128.172 195C168.15 195 200.593 162.572 200.593 122.519C200.551 82.5077 168.15 50.0798 128.172 50.0798Z" fill="#48D38A"/>
<path d="M83.9248 179.876C96.1485 189.344 111.511 195 128.173 195C145.587 195 161.578 188.841 174.053 178.577C160.574 173.424 145.043 169.443 130.642 167.894C115.028 169.611 98.1157 174.094 83.9248 179.876Z" fill="white"/>
<path d="M145.964 100.691C142.238 91.5156 136.126 83.0519 127.168 78.4017C125.284 77.4381 122.897 76.6421 121.224 77.9827C119.8 79.1142 119.758 81.3764 120.637 83.0103C121.516 84.6025 123.065 85.6915 124.572 86.7389C119.381 84.3092 113.269 83.9318 107.827 85.6915C106.488 86.1106 104.981 86.9905 104.981 88.3728C104.981 89.5042 105.944 90.3424 106.906 90.9707C109 92.353 111.344 93.4003 113.772 94.0293C109.125 94.6576 104.604 96.2915 100.628 98.7636C99.0368 99.7693 97.4877 100.942 96.6084 102.576C95.7299 104.21 95.646 106.388 96.8602 107.813C98.3254 109.531 100.962 109.489 103.223 109.238C112.348 108.274 117.163 104.629 126.582 97.0455C128.758 95.2858 135.456 101.906 138.261 101.445C139.768 101.193 144.457 100.565 145.964 100.691Z" fill="#5F36A8"/>
<path d="M136.587 149.877H123.317C117.121 149.877 112.056 144.85 112.056 138.607V102.031C112.056 95.8307 117.079 90.7615 123.317 90.7615H136.587C142.782 90.7615 147.847 95.789 147.847 102.031V138.649C147.847 144.85 142.782 149.877 136.587 149.877Z" fill="#9C7ACD"/>
<path d="M120.344 142.797L116.409 169.611C116.409 177.11 122.479 183.185 129.973 183.185C137.466 183.185 143.536 177.11 143.536 169.611L139.601 142.797H120.344Z" fill="#9C7ACD"/>
<path d="M111.219 128.342H107.242C105.4 128.342 103.893 126.834 103.893 124.991V115.773C103.893 113.93 105.4 112.421 107.242 112.421H111.219C113.06 112.421 114.568 113.93 114.568 115.773V124.991C114.609 126.834 113.103 128.342 111.219 128.342Z" fill="#9C7ACD"/>
<path d="M153.415 128.091H147.805V112.673H153.415C156.094 112.673 158.27 114.852 158.27 117.533V123.273C158.27 125.913 156.094 128.091 153.415 128.091Z" fill="#5F36A8"/>
<path d="M122.312 126.499C122.312 130.731 125.745 134.166 129.973 134.166C134.201 134.166 137.634 130.731 137.634 126.499H122.312Z" fill="white"/>
<path d="M129.93 121.346C129.763 121.346 129.595 121.178 129.595 121.011V106.766C129.595 106.598 129.763 106.431 129.93 106.431C130.098 106.431 130.265 106.598 130.265 106.766V121.011C130.265 121.22 130.14 121.346 129.93 121.346Z" fill="#40196D"/>
<path d="M121.977 113.511C121.809 113.511 121.642 113.344 121.642 113.176V111.04C121.642 110.872 121.809 110.704 121.977 110.704C122.144 110.704 122.311 110.872 122.311 111.04V113.176C122.311 113.344 122.144 113.511 121.977 113.511Z" fill="#40196D"/>
<path d="M137.925 113.511C137.758 113.511 137.59 113.344 137.59 113.176V111.04C137.59 110.872 137.758 110.704 137.925 110.704C138.093 110.704 138.26 110.872 138.26 111.04V113.176C138.26 113.344 138.093 113.511 137.925 113.511Z" fill="#40196D"/>
<path d="M139.099 135.046H132.82C132.652 135.046 132.485 134.879 132.485 134.711C132.485 134.544 132.652 134.375 132.82 134.375H139.099C143.955 134.375 147.89 130.438 147.89 125.578V122.058C147.89 121.891 148.057 121.723 148.225 121.723C148.392 121.723 148.56 121.891 148.56 122.058V125.578C148.601 130.773 144.331 135.046 139.099 135.046Z" fill="#5F36A8"/>
<path d="M147.847 96.669H134.326C134.159 96.669 133.991 96.5015 133.991 96.334C133.991 96.1666 134.159 95.9983 134.326 95.9983H147.847C148.015 95.9983 148.182 96.1666 148.182 96.334C148.182 96.5015 148.015 96.669 147.847 96.669Z" fill="#5F36A8"/>
<path d="M147.847 100.23H136.669C136.502 100.23 136.334 100.062 136.334 99.895C136.334 99.7275 136.502 99.5601 136.669 99.5601H147.847C148.014 99.5601 148.182 99.7275 148.182 99.895C148.182 100.062 148.014 100.23 147.847 100.23Z" fill="#5F36A8"/>
<path d="M147.847 103.791H142.195C142.028 103.791 141.86 103.624 141.86 103.456C141.86 103.289 142.028 103.121 142.195 103.121H147.847C148.014 103.121 148.182 103.289 148.182 103.456C148.182 103.665 148.014 103.791 147.847 103.791Z" fill="#5F36A8"/>
<path d="M147.847 107.352H142.195C142.028 107.352 141.86 107.185 141.86 107.017C141.86 106.85 142.028 106.682 142.195 106.682H147.847C148.014 106.682 148.182 106.85 148.182 107.017C148.182 107.185 148.014 107.352 147.847 107.352Z" fill="#5F36A8"/>
<path d="M147.847 110.956H145.335C145.168 110.956 145 110.788 145 110.621C145 110.453 145.168 110.285 145.335 110.285H147.847C148.014 110.285 148.182 110.453 148.182 110.621C148.182 110.788 148.014 110.956 147.847 110.956Z" fill="#5F36A8"/>
<path d="M129.931 149.878C126.289 149.878 122.898 148.788 120.052 146.903C123.317 150.715 128.172 153.104 133.614 153.104C136.21 153.104 138.638 152.559 140.857 151.595L140.145 146.735C137.215 148.705 133.741 149.878 129.931 149.878Z" fill="#40196D"/>
<path d="M132.4 137.727H127.46C126.414 137.727 125.535 136.889 125.535 135.8V133.538C125.535 132.491 126.372 131.611 127.46 131.611H132.4C133.447 131.611 134.326 132.448 134.326 133.538V135.8C134.326 136.889 133.447 137.727 132.4 137.727Z" fill="#5F36A8"/>
<path d="M103.265 109.238C112.391 108.274 117.205 104.629 126.624 97.0454C125.996 97.632 125.2 98.4702 124.782 99.2242C124.363 99.9783 124.238 100.942 124.657 101.696C125.117 102.492 126.038 102.869 126.959 102.869C127.88 102.869 128.717 102.535 129.554 102.157C134.159 100.062 138.178 96.7521 141.066 92.6469L131.521 87.9543L118.084 90.4257L110.465 101.99L103.265 109.238Z" fill="#5F36A8"/>
<path d="M150.359 112.673H149.689V128.091H150.359V112.673Z" fill="#9C7ACD"/>
</g>
<defs>
<clipPath id="clip0_45609_4203">
<rect width="251" height="195" fill="white"/>
</clipPath>
</defs>
</svg>
